<?xml version="1.0" standalone="no"?>
<!DOCTYPE svg PUBLIC "-//W3C//DTD SVG 20010904//EN"
 "http://www.w3.org/TR/2001/REC-SVG-20010904/DTD/svg10.dtd">
<svg version="1.0" xmlns="http://www.w3.org/2000/svg"
 width="800.000000pt" height="420.000000pt" viewBox="0 0 800.000000 420.000000"
 preserveAspectRatio="xMidYMid meet">

<g transform="translate(0.000000,420.000000) scale(0.100000,-0.100000)"
fill="#000000" stroke="none">
<path d="M0 3174 l0 -1026 28 6 c15 3 92 17 172 30 80 14 177 32 215 40 39 8
149 27 245 43 160 26 193 28 386 24 117 -1 221 0 231 3 11 4 25 18 31 31 6 14
18 25 26 25 15 0 43 -39 36 -50 -9 -16 56 -30 142 -30 106 0 99 -3 197 89 14
13 62 41 106 62 172 81 295 109 508 116 166 6 201 2 507 -52 315 -57 303 -55
326 -34 11 10 28 19 37 19 39 0 0 59 -65 97 -35 20 -47 22 -153 17 -105 -5
-118 -3 -144 15 -16 12 -34 21 -39 21 -6 0 -20 12 -31 26 -33 42 -26 125 18
203 11 20 11 25 0 32 -27 16 -108 29 -132 20 -39 -15 -125 -12 -142 6 -9 9
-14 21 -11 28 3 8 -2 16 -10 19 -30 11 -37 6 -31 -23 3 -15 1 -33 -6 -40 -15
-15 -219 -15 -234 0 -8 8 -19 6 -41 -5 -31 -16 -64 -21 -74 -10 -3 3 -1 18 5
34 9 24 8 32 -7 49 -10 11 -31 23 -46 26 -27 6 -28 8 -33 88 -3 45 -8 92 -12
103 -6 18 0 25 38 44 40 20 47 28 52 62 13 73 72 75 99 4 10 -25 24 -50 32
-56 7 -7 14 -23 14 -36 0 -27 15 -32 24 -9 8 22 66 20 66 -2 0 -10 6 -25 13
-34 11 -14 26 -14 142 -2 72 7 212 24 311 38 100 14 195 25 211 25 16 0 63 9
104 19 69 18 133 26 186 22 12 0 31 -10 42 -22 17 -18 26 -20 68 -14 26 4 91
8 144 9 88 1 97 3 128 29 18 15 38 27 44 28 7 0 30 1 52 2 32 2 39 5 37 20 -3
17 7 21 43 17 11 -1 17 1 13 6 -4 4 -3 13 3 20 12 15 -6 21 -80 27 -34 3 -46
9 -52 25 -4 11 -19 28 -33 38 -15 9 -26 20 -26 26 0 5 -11 21 -25 36 -25 26
-26 31 -21 112 3 47 8 115 12 153 4 49 2 67 -6 67 -12 0 -11 16 5 80 5 22 0
29 -40 53 -49 29 -105 36 -105 13 0 -20 -70 -46 -93 -34 -13 7 -23 5 -35 -5
-9 -7 -44 -19 -77 -26 -33 -7 -74 -17 -91 -23 -45 -16 -99 -3 -112 27 -22 48
-35 155 -23 182 16 35 5 63 -25 63 -13 0 -33 9 -44 20 -18 18 -36 19 -393 20
-373 0 -375 0 -380 -21 -6 -23 -27 -17 -27 7 0 10 -13 14 -49 14 l-48 0 -5
-49 c-5 -49 -48 -121 -72 -121 -6 0 -20 16 -31 36 -17 33 -18 37 -3 62 9 15
31 37 48 50 l33 22 -1037 0 -1036 0 0 -1026z m2840 932 c0 -77 -12 -100 -61
-125 -20 -10 -32 -10 -47 -2 -11 6 -36 11 -54 11 -54 0 -72 33 -46 83 6 12 14
29 18 37 4 8 21 16 39 17 21 1 29 -3 25 -10 -4 -7 12 6 35 29 32 31 49 40 67
36 23 -4 24 -8 24 -76z m-584 -242 c28 -19 27 -28 -14 -111 -15 -33 -32 -53
-42 -53 -25 0 -31 -10 -19 -32 15 -28 -15 -50 -48 -35 -24 11 -30 31 -13 42
15 9 2 25 -21 25 -12 0 -19 -7 -19 -18 0 -10 -7 -28 -16 -41 -19 -27 -33 -18
-44 31 -6 28 -8 30 -15 13 -24 -67 -20 -65 -119 -60 -103 4 -132 11 -140 31
-8 20 40 71 72 77 15 3 55 13 90 22 59 16 64 16 82 0 17 -15 19 -15 32 4 12
17 22 20 46 15 27 -5 33 -3 41 17 11 31 45 61 84 75 18 6 33 12 35 13 1 0 14
-6 28 -15z m1035 -30 c26 -24 42 -80 36 -130 -5 -52 9 -69 68 -79 22 -4 54
-18 72 -31 17 -13 35 -24 40 -24 14 0 33 -52 33 -88 0 -28 -8 -42 -42 -73 -24
-21 -51 -38 -60 -39 -9 0 -20 -4 -23 -10 -3 -6 -51 -10 -109 -10 -91 0 -105 2
-121 21 -15 16 -26 19 -56 14 -35 -6 -39 -4 -78 43 l-41 48 -50 -10 c-27 -5
-53 -7 -57 -2 -20 19 2 172 27 196 3 3 18 25 32 50 31 53 73 100 109 123 50
30 187 31 220 1z m-2526 -61 c0 -63 14 -71 77 -43 67 29 252 40 326 19 159
-44 261 -120 313 -235 65 -144 67 -312 6 -446 -20 -42 -41 -94 -48 -116 -11
-38 -10 -43 20 -88 40 -61 39 -88 -3 -130 -26 -26 -43 -34 -69 -34 -40 0 -116
-31 -139 -57 -9 -10 -19 -28 -22 -39 -6 -19 -11 -20 -46 -14 -22 4 -46 13 -55
20 -9 7 -34 10 -67 8 -70 -6 -160 8 -222 34 -99 41 -240 155 -257 206 -17 51
0 57 56 21 94 -60 147 -77 259 -85 57 -3 129 -3 160 0 47 6 56 11 54 26 -2 10
5 27 15 38 18 20 18 20 -13 27 -17 4 -50 6 -73 5 -66 -4 -75 -2 -101 26 -17
19 -31 25 -49 22 -21 -4 -26 0 -31 23 -3 16 -17 46 -31 69 -14 22 -25 43 -24
47 4 22 -5 32 -46 58 -53 34 -59 46 -44 94 10 33 8 41 -15 75 -30 45 -31 52
-12 59 12 5 11 12 -5 44 -20 38 -20 60 -1 120 l10 31 -36 -21 c-31 -18 -35
-19 -29 -4 26 68 -92 -90 -125 -168 -9 -22 -22 -67 -29 -100 -10 -55 -12 -58
-26 -40 -12 16 -14 45 -11 136 4 108 6 120 40 191 25 53 58 99 109 153 84 89
123 117 159 113 22 -3 25 -8 25 -45z m2035 -163 c23 -20 23 -23 11 -73 -18
-69 -34 -86 -77 -82 -37 2 -84 38 -84 63 0 23 63 100 85 105 37 8 42 7 65 -13z
m-332 -793 c3 -24 8 -27 38 -27 30 0 37 -4 45 -30 6 -16 14 -30 18 -30 4 0 7
-9 8 -20 3 -33 -88 -73 -126 -56 -14 6 -25 6 -29 0 -15 -21 -70 -52 -97 -56
-33 -3 -42 15 -44 88 -1 33 -6 43 -26 52 -25 11 -31 34 -19 66 8 20 40 21 48
1 3 -8 2 -15 -3 -15 -4 0 -6 -11 -3 -25 2 -14 6 -25 8 -25 10 0 49 27 76 53
16 15 38 27 49 27 11 0 22 7 26 15 8 23 28 12 31 -18z m-1219 -324 c1 -7 -3
-13 -9 -13 -17 0 -31 39 -24 67 l7 28 13 -35 c7 -19 13 -41 13 -47z"/>
<path d="M645 3590 c-10 -11 -13 -20 -8 -20 13 0 38 29 31 35 -3 3 -13 -4 -23
-15z"/>
<path d="M4500 4130 c0 -60 3 -70 18 -71 11 -1 9 -4 -8 -9 -17 -5 -19 -8 -7
-9 13 -1 17 -10 17 -41 0 -38 12 -52 25 -30 4 6 12 4 21 -5 9 -8 25 -15 37
-15 12 -1 58 -2 102 -4 44 -1 86 2 93 7 9 7 11 6 6 -6 -8 -23 30 -41 46 -22 7
8 19 15 27 15 15 0 36 17 44 35 2 6 -43 14 -116 20 -119 10 -119 10 -135 40
-8 17 -18 32 -22 35 -13 10 -28 61 -28 96 l0 34 -60 0 -60 0 0 -70z"/>
<path d="M6252 4174 c28 -28 48 -25 48 7 0 15 -7 19 -37 19 l-38 0 27 -26z"/>
<path d="M6565 4163 c8 -21 16 -73 18 -116 3 -70 1 -80 -19 -101 -31 -30 -94
-50 -136 -42 -18 3 -46 19 -61 35 -30 33 -67 37 -67 9 0 -9 14 -39 30 -65 20
-32 30 -60 30 -87 0 -25 8 -51 20 -66 11 -14 20 -32 20 -41 0 -13 9 -15 48
-12 41 4 51 1 76 -22 27 -25 29 -25 47 -9 18 16 20 16 39 -1 22 -20 46 -67 52
-99 5 -33 28 -30 34 3 4 17 12 31 19 31 7 0 37 22 66 50 31 29 64 50 77 50 13
0 22 6 22 15 0 23 39 95 51 95 6 0 20 -5 31 -11 17 -9 18 -13 7 -21 -11 -7
-11 -11 -1 -15 6 -2 12 -12 12 -20 0 -30 51 -105 67 -99 23 9 53 -12 53 -38 0
-13 7 -26 15 -30 8 -3 15 -16 15 -30 0 -14 5 -28 10 -31 15 -10 12 -18 -17
-39 -16 -12 -40 -19 -58 -18 -21 2 -38 -4 -50 -18 -10 -11 -27 -20 -37 -20
-10 0 -21 -8 -25 -17 -19 -54 -58 -68 -118 -43 -11 4 -28 11 -37 13 -9 3 -24
21 -33 41 -9 19 -23 37 -31 40 -8 3 -14 11 -14 18 0 8 -9 21 -19 30 -15 13
-27 14 -57 8 -30 -7 -42 -5 -56 7 -17 15 -18 14 -18 -20 0 -37 0 -37 -42 -38
-59 -1 -90 -4 -113 -12 -26 -8 -57 18 -84 71 -29 57 -46 64 -81 34 -24 -22
-28 -31 -27 -81 1 -130 -27 -261 -55 -261 -5 0 -8 -7 -8 -15 0 -8 -7 -15 -16
-15 -8 0 -13 -4 -9 -9 3 -5 -2 -16 -10 -24 -8 -9 -15 -19 -15 -23 0 -23 49
-104 72 -120 16 -11 28 -25 28 -33 0 -8 6 -11 15 -7 8 3 15 0 15 -7 1 -7 6 -5
14 6 7 9 17 17 22 17 5 0 16 21 23 46 10 32 16 42 22 32 6 -9 9 -6 10 12 1 14
1 28 0 33 0 4 4 7 9 7 6 0 10 -8 11 -17 0 -10 11 25 23 77 20 83 25 95 45 98
23 4 86 -21 96 -38 3 -5 19 -5 38 1 72 20 167 5 167 -28 0 -5 13 -22 30 -36
16 -15 32 -37 35 -49 9 -35 -12 -309 -24 -321 -6 -6 -11 -19 -11 -29 0 -9 -14
-33 -31 -53 -29 -33 -35 -35 -93 -35 -33 0 -83 7 -110 15 -27 8 -66 15 -87 15
-21 0 -41 5 -44 10 -10 17 -48 12 -41 -5 3 -9 0 -15 -9 -15 -9 0 -15 -9 -15
-23 0 -13 -6 -32 -14 -42 -8 -11 -11 -25 -9 -32 3 -8 -1 -21 -10 -31 -10 -12
-16 -50 -20 -132 -10 -213 -31 -540 -34 -536 -6 6 -79 288 -89 346 -2 14 -4
79 -4 145 0 66 -4 127 -10 135 -6 10 -10 11 -10 3 0 -7 -9 -13 -20 -13 -11 0
-20 -7 -20 -15 0 -17 -73 -39 -106 -31 -33 9 -36 -4 -14 -70 38 -122 58 -210
57 -257 0 -29 -4 -43 -9 -35 -6 11 -8 11 -8 0 0 -7 -4 -11 -9 -7 -15 9 -23
-32 -12 -54 13 -23 15 -71 4 -71 -5 0 -20 28 -36 63 -15 34 -36 79 -47 99 -11
20 -20 42 -20 47 0 11 -32 85 -88 201 -20 41 -35 81 -33 88 1 9 -6 13 -21 12
-42 -4 -47 0 -54 35 -4 21 -13 37 -24 40 -10 3 -28 20 -39 38 l-21 32 6 -70
c4 -47 21 -108 51 -185 73 -187 70 -185 -55 37 -26 46 -50 83 -54 83 -5 0 -8
-12 -8 -27 0 -24 -1 -25 -13 -9 -9 13 -20 16 -40 11 -15 -4 -30 -11 -32 -16
-3 -4 8 -35 25 -69 17 -33 26 -60 21 -60 -5 0 -12 8 -15 18 -13 33 -100 172
-109 172 -4 0 -6 -4 -3 -9 3 -5 -1 -12 -9 -15 -9 -3 -18 0 -21 8 -5 13 -58 16
-70 3 -3 -3 13 -37 35 -75 23 -39 41 -82 41 -95 0 -14 16 -72 36 -129 20 -57
50 -147 67 -202 27 -91 29 -101 15 -125 -22 -37 -28 -103 -13 -125 10 -13 33
-19 89 -23 42 -3 79 -10 82 -14 6 -10 -44 -24 -53 -15 -4 3 -17 -1 -30 -10
-20 -12 -31 -13 -55 -5 -38 13 -38 13 -38 1 0 -5 18 -14 39 -20 25 -6 42 -18
46 -30 3 -11 3 -172 -1 -357 -4 -186 -6 -345 -5 -353 1 -8 4 -130 7 -270 3
-204 1 -273 -12 -348 -9 -51 -14 -98 -11 -106 8 -20 70 -46 155 -62 65 -13
151 -14 547 -9 467 5 591 10 599 23 2 4 6 35 8 70 2 46 -1 65 -11 72 -16 9
-20 136 -7 178 5 14 3 22 -4 22 -7 0 -8 6 0 19 5 11 8 26 5 33 -4 11 73 12
432 10 241 -2 511 0 601 3 l162 7 0 47 0 47 -192 12 c-172 12 -343 25 -773 63
-71 6 -155 10 -187 8 -36 -3 -54 0 -50 6 10 16 11 86 1 79 -5 -3 -9 -1 -9 5 0
5 5 13 10 16 6 3 10 22 10 41 0 21 -4 33 -10 29 -5 -3 -10 -2 -10 4 0 5 4 12
9 15 5 4 9 78 9 166 0 90 -4 157 -9 154 -5 -3 -9 -1 -9 5 0 5 5 13 10 16 6 4
9 30 8 58 -1 29 2 67 6 86 6 25 5 32 -4 26 -8 -5 -10 -2 -6 11 12 39 16 138 6
144 -7 4 -6 18 1 41 13 38 29 62 37 55 7 -7 42 13 42 24 0 6 -23 8 -52 5 -98
-9 -672 -13 -763 -5 -49 4 -78 8 -62 8 16 1 27 8 27 16 0 17 33 31 38 17 2 -6
8 -9 13 -5 5 3 9 -2 9 -10 0 -14 18 -16 118 -16 l118 0 22 53 c12 29 22 58 22
65 0 6 5 12 10 12 6 0 10 5 10 10 0 6 8 27 17 48 9 20 17 42 18 47 2 18 18 60
24 65 13 11 41 77 47 110 4 19 13 46 21 59 8 13 11 21 5 17 -6 -3 -2 12 9 33
10 22 19 45 19 51 0 7 6 24 14 38 28 55 64 138 70 166 4 16 18 43 32 60 13 17
28 36 32 41 42 57 75 95 83 95 5 0 9 -14 9 -31 0 -17 4 -28 10 -24 6 3 10 15
10 26 0 30 24 17 31 -17 4 -16 7 -23 8 -16 0 6 8 12 17 12 13 0 15 -8 12 -35
-4 -38 5 -46 21 -18 15 28 25 7 11 -26 -12 -30 -6 -56 10 -46 5 3 12 27 15 53
4 26 12 62 18 80 13 39 42 45 35 7 -8 -40 11 -40 27 -1 25 59 39 45 32 -31 -4
-42 -3 -71 4 -79 8 -10 6 -31 -5 -77 -20 -80 -21 -77 9 -77 36 0 95 -56 95
-90 0 -15 -7 -33 -15 -40 -13 -11 -21 -9 -45 9 l-30 21 -22 -22 c-14 -14 -23
-18 -26 -9 -3 9 -7 9 -19 -1 -13 -10 -14 -8 -11 12 1 13 -3 25 -9 27 -7 3 -13
-2 -13 -11 0 -9 -9 -33 -20 -53 -11 -21 -20 -45 -20 -54 0 -9 -6 -19 -13 -22
-15 -6 12 114 38 166 8 16 15 31 15 32 0 0 -16 -1 -36 -3 -41 -5 -84 14 -84
37 0 41 -29 -33 -49 -124 -31 -145 -67 -317 -87 -415 -9 -47 -19 -95 -22 -107
-4 -21 -1 -23 46 -23 33 0 54 5 63 16 9 11 22 14 43 10 17 -3 47 -8 66 -10 19
-2 116 -15 215 -30 99 -15 236 -33 303 -42 68 -8 143 -21 165 -29 23 -8 56
-15 72 -15 32 0 89 -14 230 -54 49 -14 93 -26 97 -26 5 0 8 599 8 1330 l0
1330 -725 0 -725 0 15 -37z m342 -136 c18 -17 33 -38 33 -48 0 -10 5 -21 10
-24 13 -8 13 -45 -1 -45 -5 0 -15 -13 -20 -30 -13 -36 -44 -48 -68 -26 -10 9
-25 16 -35 16 -9 0 -28 12 -41 26 -34 37 -34 94 1 139 22 30 30 33 57 28 17
-4 46 -20 64 -36z m643 -407 c0 -16 -4 -30 -10 -30 -11 0 -14 43 -3 53 11 12
13 8 13 -23z m-502 -455 c1 -22 7 -44 12 -49 20 -20 10 -65 -20 -93 -29 -26
-30 -29 -24 -87 3 -37 12 -67 22 -76 34 -32 15 -53 -43 -49 -11 1 -27 0 -35
-2 -11 -3 -16 8 -20 45 -3 27 -9 51 -15 53 -5 2 -23 -8 -39 -22 -18 -15 -33
-22 -39 -16 -5 5 -13 44 -18 87 -5 44 -14 92 -19 108 -13 38 -14 36 15 36 13
0 40 14 58 30 19 17 43 30 53 30 11 0 28 11 38 25 14 18 27 25 45 23 22 -3 26
-9 29 -43z m402 -76 c0 -5 -4 -9 -10 -9 -5 0 -10 7 -10 16 0 8 5 12 10 9 6 -3
10 -10 10 -16z m15 -29 c3 -5 2 -10 -4 -10 -5 0 -13 5 -16 10 -3 6 -2 10 4 10
5 0 13 -4 16 -10z m-307 -159 c15 -9 42 -58 42 -75 0 -14 -47 -36 -76 -36 -24
0 -27 11 -17 83 5 38 22 47 51 28z m-291 -83 c-3 -8 -6 -5 -6 6 -1 11 2 17 5
13 3 -3 4 -12 1 -19z m-427 -371 c12 -13 25 -17 40 -12 12 4 27 1 35 -5 18
-15 19 -72 3 -103 -7 -12 -14 -23 -14 -25 -1 -1 -14 2 -29 8 -16 6 -53 11 -83
11 l-55 1 6 66 c4 52 10 70 27 84 23 18 27 17 70 -25z m-330 -4 c1 -5 5 -27 9
-50 11 -58 -4 -78 -19 -24 -6 24 -9 50 -6 58 3 8 1 11 -4 8 -6 -3 -10 -1 -10
4 0 12 30 15 30 4z m1181 -143 c3 -14 2 -33 -3 -43 -9 -18 -10 -18 -22 0 -7
10 -16 31 -20 46 -6 25 -4 28 16 25 14 -2 25 -12 29 -28z m-1752 -42 c12 -21
20 -38 17 -38 -8 0 -46 62 -46 74 0 11 1 10 29 -36z m95 16 c3 -8 2 -12 -4 -9
-6 3 -10 10 -10 16 0 14 7 11 14 -7z m-45 -104 c11 -22 19 -40 17 -40 -6 0
-46 65 -46 74 0 14 9 4 29 -34z m57 -102 c8 -16 13 -28 10 -28 -6 0 -46 66
-46 76 0 10 14 -8 36 -48z m84 37 c7 -9 8 -15 2 -15 -5 0 -12 7 -16 15 -3 8
-4 15 -2 15 2 0 9 -7 16 -15z m24 -41 c3 -8 2 -12 -4 -9 -6 3 -10 10 -10 16 0
14 7 11 14 -7z m88 -152 c21 -37 52 -95 70 -129 18 -34 39 -64 47 -66 9 -3 -4
-5 -29 -4 -25 0 -35 2 -22 4 27 5 27 10 1 48 -11 17 -24 39 -30 50 -8 18 -32
62 -97 180 l-22 40 22 -28 c13 -16 40 -58 60 -95z m-123 -61 c45 -74 80 -136
78 -138 -8 -8 -37 10 -37 23 0 8 -4 14 -9 14 -13 0 -53 68 -47 79 4 5 3 11 -1
13 -7 3 -71 124 -82 153 -10 29 25 -23 98 -144z m320 45 c17 -44 29 -81 27
-83 -11 -12 -35 14 -46 50 -6 23 -19 49 -27 59 -12 13 -12 20 -2 37 7 11 14
19 15 18 1 -1 16 -38 33 -81z m151 -329 c0 -18 -26 18 -27 37 -2 19 0 18 12
-4 8 -14 14 -29 15 -33z m-281 -37 c28 -44 54 -88 58 -97 4 -10 10 -20 13 -23
10 -8 130 -224 130 -235 0 -10 -25 12 -25 23 0 4 -8 18 -17 32 -35 54 -122
197 -146 240 -23 41 -42 74 -72 123 -6 10 -7 17 -1 17 5 0 32 -36 60 -80z
m-104 50 c10 -11 14 -20 9 -20 -5 0 -15 9 -22 20 -7 11 -11 20 -9 20 2 0 12
-9 22 -20z m995 -8 c0 -13 -12 -22 -22 -16 -10 6 -1 24 13 24 5 0 9 -4 9 -8z
m-165 -74 c-3 -40 -11 -79 -17 -85 -6 -7 -12 -39 -15 -70 -2 -32 -9 -60 -15
-64 -6 -4 -12 -23 -13 -43 -5 -57 -16 -96 -27 -96 -6 0 -8 -10 -5 -22 3 -12 2
-28 -3 -37 -4 -9 -10 -32 -14 -51 -3 -19 -9 -36 -15 -38 -5 -2 -7 -19 -4 -38
3 -20 1 -34 -5 -34 -18 0 -21 27 -7 73 7 25 11 47 9 50 -2 2 2 10 10 16 13 11
13 16 -2 39 -9 14 -12 23 -6 19 11 -6 28 26 25 47 -1 4 5 19 14 33 12 18 13
28 6 37 -8 9 -8 22 0 45 9 25 9 39 -1 59 -8 20 -8 24 0 16 6 -7 20 -9 31 -7
18 5 19 7 4 29 -8 13 -13 24 -9 24 4 0 1 6 -5 14 -9 11 -7 15 9 19 21 5 27 31
10 42 -5 3 -10 11 -10 17 0 7 4 7 14 -1 19 -16 45 14 28 31 -18 18 -15 48 4
48 15 0 16 -9 9 -72z m-795 17 c0 -5 -5 -3 -10 5 -5 8 -10 20 -10 25 0 6 5 3
10 -5 5 -8 10 -19 10 -25z m540 0 c0 -5 -5 -3 -10 5 -5 8 -10 20 -10 25 0 6 5
3 10 -5 5 -8 10 -19 10 -25z m-334 -17 c8 -16 13 -32 11 -35 -3 -2 -8 5 -12
16 -3 12 -10 21 -15 21 -4 0 -10 9 -13 20 -7 28 10 15 29 -22z m138 -9 c13
-22 15 -30 5 -27 -13 4 -47 55 -48 72 -2 14 23 -11 43 -45z m-89 31 c3 -5 1
-10 -4 -10 -6 0 -11 5 -11 10 0 6 2 10 4 10 3 0 8 -4 11 -10z m670 0 c3 -5 1
-10 -4 -10 -6 0 -11 5 -11 10 0 6 2 10 4 10 3 0 8 -4 11 -10z m-942 -67 c9
-17 17 -35 17 -40 -1 -12 -29 27 -52 72 -18 36 -18 38 -2 20 11 -11 27 -35 37
-52z m177 11 c0 -3 -7 -1 -15 6 -8 7 -15 17 -15 22 0 5 7 3 15 -6 8 -8 15 -18
15 -22z m405 25 c11 -16 1 -19 -13 -3 -7 8 -8 14 -3 14 5 0 13 -5 16 -11z m63
-14 c-3 -3 -9 2 -12 12 -6 14 -5 15 5 6 7 -7 10 -15 7 -18z m-348 0 c7 -9 8
-15 2 -15 -5 0 -12 7 -16 15 -3 8 -4 15 -2 15 2 0 9 -7 16 -15z m230 5 c0 -5
-2 -10 -4 -10 -3 0 -8 5 -11 10 -3 6 -1 10 4 10 6 0 11 -4 11 -10z m-260 -61
c15 -28 5 -23 -15 7 -9 15 -12 23 -6 20 6 -4 16 -16 21 -27z m59 1 c11 -24 11
-24 -3 -6 -9 11 -16 24 -16 30 0 12 5 7 19 -24z m77 -11 c14 -22 23 -43 21
-45 -3 -3 -15 12 -28 33 -29 47 -32 53 -25 53 3 0 17 -18 32 -41z m214 21 c0
-5 -2 -10 -4 -10 -3 0 -8 5 -11 10 -3 6 -1 10 4 10 6 0 11 -4 11 -10z m-102
-13 c13 5 14 3 5 -7 -13 -14 -33 -5 -32 13 0 9 2 9 5 0 3 -7 13 -9 22 -6z m70
1 c-2 -6 -10 -13 -16 -14 -7 -1 -8 0 -2 3 5 2 8 9 4 14 -3 5 0 9 6 9 7 0 10
-5 8 -12z m-562 -83 c10 -22 19 -42 20 -45 4 -20 21 -47 36 -60 17 -15 78
-130 78 -148 0 -11 -39 -57 -44 -51 -13 14 -37 72 -38 94 -1 14 -5 25 -9 25
-13 0 -18 44 -6 59 7 8 8 12 2 9 -5 -3 -31 36 -56 87 -42 83 -44 91 -24 81 13
-6 31 -29 41 -51z m78 49 c3 -8 2 -12 -4 -9 -6 3 -10 10 -10 16 0 14 7 11 14
-7z m134 -19 c-3 -3 -9 2 -12 12 -6 14 -5 15 5 6 7 -7 10 -15 7 -18z m57 15
c3 -5 1 -10 -4 -10 -6 0 -11 5 -11 10 0 6 2 10 4 10 3 0 8 -4 11 -10z m-225
-45 c7 -9 8 -15 2 -15 -5 0 -12 7 -16 15 -3 8 -4 15 -2 15 2 0 9 -7 16 -15z
m326 -12 c-7 -7 -26 7 -26 19 0 6 6 6 15 -2 9 -7 13 -15 11 -17z m63 -7 c-3
-3 -11 5 -18 17 -13 21 -12 21 5 5 10 -10 16 -20 13 -22z m-131 -1 c-3 -3 -9
2 -12 12 -6 14 -5 15 5 6 7 -7 10 -15 7 -18z m392 -35 c0 -5 -2 -10 -4 -10 -3
0 -8 5 -11 10 -3 6 -1 10 4 10 6 0 11 -4 11 -10z m-225 -10 c3 -5 2 -10 -4
-10 -5 0 -13 5 -16 10 -3 6 -2 10 4 10 5 0 13 -4 16 -10z m-485 -40 c0 -5 -2
-10 -4 -10 -3 0 -8 5 -11 10 -3 6 -1 10 4 10 6 0 11 -4 11 -10z m-96 -42 c-4
-27 -3 -30 6 -15 6 9 15 15 21 12 12 -8 12 -45 -1 -45 -5 0 -10 -8 -10 -17 0
-15 2 -16 10 -3 7 12 12 12 22 2 10 -10 10 -19 0 -44 -8 -23 -8 -28 0 -20 17
17 41 -18 25 -37 -10 -11 -9 -13 3 -9 23 7 41 -22 24 -40 -8 -7 -14 -21 -14
-30 0 -15 2 -15 10 -2 7 12 11 8 16 -17 4 -18 10 -33 15 -33 5 0 9 -12 9 -28
0 -15 7 -39 16 -52 l16 -25 -22 24 c-18 21 -23 22 -31 10 -5 -7 -9 -20 -9 -26
0 -7 -4 -13 -8 -13 -12 0 -73 -90 -75 -110 -1 -10 -7 -16 -14 -13 -8 3 -13 -3
-13 -15 0 -36 -20 -35 -21 0 -5 111 -3 255 4 251 4 -2 5 -9 2 -14 -4 -5 -2 -9
4 -9 5 0 13 9 16 20 3 11 11 20 16 20 6 0 7 5 4 10 -3 6 -2 10 3 10 6 0 15 14
21 30 6 18 6 30 0 30 -5 0 -9 -7 -9 -15 0 -14 -34 -55 -46 -55 -3 0 -3 9 0 20
3 11 9 29 12 40 3 11 1 20 -5 20 -6 0 -11 -7 -11 -15 0 -8 -4 -15 -10 -15 -5
0 -10 4 -10 9 0 6 5 13 10 16 6 3 10 17 10 30 0 13 4 26 9 29 12 8 21 46 10
46 -5 0 -9 -9 -9 -20 0 -33 -17 -22 -23 15 -9 58 6 123 30 125 1 0 0 -15 -3
-32z m240 6 c3 -8 2 -12 -4 -9 -6 3 -10 10 -10 16 0 14 7 11 14 -7z m818 -46
c-7 -7 -12 -8 -12 -2 0 14 12 26 19 19 2 -3 -1 -11 -7 -17z m-629 -52 c14 -19
16 -27 7 -24 -17 5 -48 56 -49 78 0 10 3 8 11 -5 6 -11 20 -33 31 -49z m-343
39 c7 -9 8 -15 2 -15 -5 0 -12 7 -16 15 -3 8 -4 15 -2 15 2 0 9 -7 16 -15z
m530 -4 c0 -5 -6 -11 -12 -14 -10 -3 -10 -8 1 -21 11 -13 16 -14 22 -4 11 17
10 -1 -1 -27 -5 -11 -9 -15 -9 -9 -1 6 -10 21 -21 33 -15 18 -16 26 -7 37 14
15 27 18 27 5z m-502 -56 c-3 -3 -9 2 -12 12 -6 14 -5 15 5 6 7 -7 10 -15 7
-18z m346 -30 c3 -9 0 -15 -9 -15 -8 0 -15 7 -15 15 0 8 4 15 9 15 5 0 11 -7
15 -15z m194 -41 c-4 -3 -12 5 -18 18 -12 22 -12 22 6 6 10 -10 15 -20 12 -24z
m-168 -18 c0 -5 -7 -3 -15 4 -8 7 -12 17 -9 22 7 10 24 -9 24 -26z m423 14 c3
-11 1 -18 -4 -14 -5 3 -9 12 -9 20 0 20 7 17 13 -6z m-28 -227 c-4 -16 -2 -22
5 -18 5 3 10 -1 10 -9 0 -19 -17 -30 -23 -14 -4 10 -7 10 -16 1 -6 -7 -8 -11
-5 -8 4 3 13 0 20 -6 23 -19 -21 -99 -46 -84 -12 7 -7 79 8 115 6 14 13 33 16
42 9 29 39 10 31 -19z m-750 -32 c-6 -5 -25 10 -25 20 0 5 6 4 14 -3 8 -7 12
-15 11 -17z m-36 -45 c-3 -3 -11 5 -18 17 -13 21 -12 21 5 5 10 -10 16 -20 13
-22z m-41 -41 c-3 -3 -9 2 -12 12 -6 14 -5 15 5 6 7 -7 10 -15 7 -18z m371
-18 c0 -12 0 -26 1 -32 2 -5 3 -28 4 -50 1 -22 5 -50 9 -62 6 -17 5 -23 -5
-23 -8 0 -14 -9 -14 -20 0 -11 4 -20 8 -20 12 0 10 -33 -4 -63 -13 -26 -41
-36 -52 -19 -3 5 4 19 15 30 18 20 18 24 4 45 -9 14 -13 32 -9 42 5 13 4 16
-4 11 -17 -10 -15 6 8 58 10 25 24 46 30 46 6 0 8 5 5 10 -4 6 -13 4 -23 -7
-16 -16 -17 -15 -20 2 -2 9 2 21 8 25 7 4 10 14 8 21 -5 16 13 39 25 32 5 -3
7 -15 6 -26z m-239 -169 c0 -7 -4 -17 -8 -23 -11 -16 -46 -41 -41 -30 26 53
34 65 41 65 4 0 8 -6 8 -12z m356 -43 c0 -14 -4 -25 -8 -25 -10 0 -10 13 -2
34 9 23 12 20 10 -9z m-160 -33 c-10 -10 -29 15 -21 28 6 9 10 8 17 -4 6 -10
7 -20 4 -24z m-301 18 c3 -5 1 -10 -4 -10 -6 0 -11 5 -11 10 0 6 2 10 4 10 3
0 8 -4 11 -10z"/>
<path d="M5712 1130 c0 -14 2 -19 5 -12 2 6 2 18 0 25 -3 6 -5 1 -5 -13z"/>
<path d="M5746 1025 c-3 -8 -1 -15 4 -15 6 0 10 7 10 15 0 8 -2 15 -4 15 -2 0
-6 -7 -10 -15z"/>
<path d="M5782 910 c-20 -32 -14 -45 8 -17 11 14 20 28 20 31 0 13 -16 5 -28
-14z"/>
<path d="M5745 849 c-4 -6 -5 -12 -2 -15 2 -3 7 2 10 11 7 17 1 20 -8 4z"/>
<path d="M5795 830 c-3 -5 -1 -10 4 -10 6 0 11 5 11 10 0 6 -2 10 -4 10 -3 0
-8 -4 -11 -10z"/>
<path d="M5722 808 c-14 -14 -16 -38 -3 -38 5 0 11 11 13 25 6 29 6 29 -10 13z"/>
<path d="M5737 743 c-4 -3 -7 -11 -7 -17 0 -6 5 -5 12 2 6 6 9 14 7 17 -3 3
-9 2 -12 -2z"/>
<path d="M5710 689 c0 -11 5 -17 10 -14 6 3 10 13 10 21 0 8 -4 14 -10 14 -5
0 -10 -9 -10 -21z"/>
<path d="M6130 494 c0 -8 5 -12 10 -9 6 4 8 11 5 16 -9 14 -15 11 -15 -7z"/>
<path d="M5659 3961 c-39 -44 -26 -63 38 -54 40 6 49 27 23 53 -24 24 -40 24
-61 1z"/>
<path d="M5441 3928 c0 -9 -11 -18 -23 -21 -21 -3 -21 -4 -5 -12 23 -10 41 7
34 31 -4 16 -5 16 -6 2z"/>
<path d="M5598 3933 c7 -3 16 -2 19 1 4 3 -2 6 -13 5 -11 0 -14 -3 -6 -6z"/>
<path d="M6005 3570 c3 -5 10 -10 16 -10 5 0 9 5 9 10 0 6 -7 10 -16 10 -8 0
-12 -4 -9 -10z"/>
<path d="M6036 3544 c-3 -8 -14 -14 -23 -13 -10 0 -23 1 -30 0 -17 -1 -4 -31
13 -31 8 0 24 -9 36 -20 12 -11 28 -20 35 -20 7 0 13 -4 13 -10 0 -5 9 -10 20
-10 14 0 20 7 20 21 0 16 -5 19 -22 15 -13 -3 -17 -3 -10 0 15 7 15 26 0 59
-13 28 -43 34 -52 9z"/>
<path d="M5913 3473 c9 -9 20 -13 24 -9 4 4 1 11 -7 16 -25 16 -35 11 -17 -7z"/>
<path d="M5955 3470 c-3 -5 1 -10 9 -10 9 0 16 5 16 10 0 6 -4 10 -9 10 -6 0
-13 -4 -16 -10z"/>
<path d="M5945 3062 c-11 -2 -29 -11 -40 -18 -19 -13 -19 -14 6 -14 24 0 69
24 59 32 -3 3 -14 2 -25 0z"/>
<path d="M3093 2906 c-3 -4 -23 -6 -44 -3 -31 4 -39 2 -39 -10 0 -13 9 -14 56
-8 42 5 60 3 72 -8 9 -8 39 -20 66 -26 27 -7 66 -21 86 -31 33 -17 40 -18 50
-5 7 8 18 15 26 15 7 0 16 5 19 11 4 6 0 9 -11 7 -14 -2 -18 3 -17 19 4 40
-43 55 -159 51 -55 -2 -102 -7 -105 -12z"/>
<path d="M2840 2864 c0 -8 5 -12 10 -9 6 3 10 10 10 16 0 5 -4 9 -10 9 -5 0
-10 -7 -10 -16z"/>
<path d="M3616 2824 c-23 -25 -31 -27 -122 -31 -54 -2 -103 -8 -108 -13 -7 -7
-5 -10 5 -10 12 0 13 -14 9 -79 -5 -66 -11 -84 -33 -111 -15 -17 -27 -44 -27
-59 0 -15 -5 -32 -12 -39 -14 -14 3 -38 35 -48 23 -7 54 -34 49 -43 -1 -3 5
-7 15 -8 11 -2 28 11 43 32 14 19 31 32 38 30 7 -3 15 2 18 9 8 20 50 33 162
51 94 15 173 42 186 64 4 6 18 11 30 11 13 0 29 6 35 14 7 8 20 15 29 15 25
-1 133 11 162 17 l25 6 -30 13 c-35 14 -65 54 -80 104 -13 45 -27 48 -64 12
-16 -16 -44 -32 -61 -36 -45 -10 -131 13 -137 36 -3 11 -8 19 -12 19 -4 0 -15
16 -24 35 -15 32 -20 35 -61 35 -36 0 -50 -5 -70 -26z"/>
<path d="M4329 2695 c-13 -13 -42 -33 -64 -44 l-40 -21 30 0 c17 0 60 7 96 14
43 9 79 12 102 6 25 -5 36 -4 34 4 -1 6 13 11 37 11 22 0 41 5 43 12 5 15 -17
28 -26 15 -8 -14 -74 -10 -92 4 -8 6 -33 14 -55 17 -34 4 -46 1 -65 -18z"/>
<path d="M5940 2640 c0 -40 15 -54 26 -25 8 20 -4 65 -16 65 -6 0 -10 -18 -10
-40z"/>
<path d="M4560 2630 c0 -6 7 -10 15 -10 8 0 15 2 15 4 0 2 -7 6 -15 10 -8 3
-15 1 -15 -4z"/>
<path d="M5390 2628 c0 -9 5 -20 10 -23 13 -8 13 5 0 25 -8 13 -10 13 -10 -2z"/>
<path d="M6971 2423 c1 -32 3 -50 6 -40 2 9 9 17 15 17 6 0 8 11 6 25 -3 13
-1 22 3 19 14 -8 10 6 -5 22 -23 23 -26 17 -25 -43z"/>
<path d="M6712 2447 c-9 -12 -58 -132 -109 -267 -13 -36 -47 -112 -75 -169
-27 -57 -54 -113 -59 -125 -5 -12 -25 -50 -44 -86 -19 -36 -35 -68 -35 -72 0
-5 51 -8 113 -8 l114 0 12 38 c11 32 29 121 46 230 3 19 13 66 21 105 17 73
21 97 48 247 19 104 20 93 -3 107 -15 9 -21 9 -29 0z"/>
<path d="M5840 2402 c0 -22 24 -90 38 -104 24 -28 30 -21 19 22 -6 22 -15 40
-19 40 -4 0 -8 9 -8 19 0 10 -7 21 -15 25 -8 3 -15 2 -15 -2z"/>
<path d="M2010 2301 c-23 -7 -23 -8 -5 -13 11 -3 82 -6 157 -7 125 -2 313 -30
381 -56 9 -4 17 -3 17 2 0 12 -157 59 -240 72 -72 12 -271 13 -310 2z"/>
<path d="M5881 2248 c-1 -16 4 -28 9 -28 12 0 12 8 0 35 -8 18 -9 17 -9 -7z"/>
<path d="M740 2159 c-98 -9 -314 -42 -385 -58 -34 -8 -31 -9 25 -5 99 8 126
11 245 24 61 7 204 12 319 12 208 1 237 8 115 27 -73 12 -181 12 -319 0z"/>
<path d="M710 2019 c-52 -5 -167 -16 -255 -24 -88 -9 -182 -18 -209 -21 -27
-2 -52 -7 -55 -10 -7 -8 159 0 399 20 96 8 239 18 317 21 79 4 140 11 137 16
-6 11 -203 9 -334 -2z"/>
<path d="M1775 1980 c-32 -6 -83 -17 -111 -25 -50 -14 -56 -14 -108 6 -71 26
-108 20 -123 -21 -16 -43 -99 -81 -151 -69 -59 14 -263 10 -617 -11 -181 -10
-405 -22 -497 -26 l-168 -7 0 -135 c0 -124 1 -134 17 -127 62 26 147 55 164
55 10 0 38 8 62 19 23 10 65 23 92 29 28 6 88 20 135 32 78 19 124 22 530 29
255 5 468 5 500 0 63 -10 98 -5 154 23 32 16 61 20 160 21 66 1 165 -3 219 -7
128 -12 597 10 648 29 35 13 74 13 184 -1 77 -10 88 -18 82 -67 -6 -52 -43
-159 -59 -168 -7 -4 -48 -10 -92 -13 -45 -4 -112 -9 -151 -12 -38 -4 -116 -7
-172 -9 -81 -2 -108 -6 -129 -21 -94 -66 -181 -98 -318 -119 -90 -13 -186 -15
-633 -10 -291 3 -559 7 -598 10 -38 2 -158 7 -265 10 -217 7 -486 23 -512 31
-16 5 -18 -3 -18 -68 l0 -73 828 1 c581 0 839 4 867 11 44 13 205 36 365 53
58 6 193 12 300 13 144 2 222 7 297 22 99 19 102 19 123 0 17 -15 20 -29 18
-84 -1 -36 2 -89 6 -117 8 -48 7 -53 -15 -67 -13 -8 -55 -18 -93 -22 -42 -4
-149 -33 -265 -71 -232 -75 -322 -97 -496 -119 -71 -8 -137 -19 -145 -24 -8
-4 -46 -4 -85 0 -38 4 -243 12 -455 18 -509 14 -1005 33 -1177 46 l-73 6 0
-74 0 -74 286 -7 c158 -4 325 -9 373 -11 270 -15 778 -38 851 -39 63 0 109 7
180 27 52 15 122 32 155 37 33 6 107 20 165 30 120 22 244 43 415 70 66 11
206 33 310 50 279 46 296 47 320 20 16 -18 20 -34 17 -85 -2 -51 1 -66 14 -73
28 -16 120 14 170 56 23 20 24 1 -16 267 -31 209 -55 499 -45 551 4 21 12 34
21 34 9 0 14 6 12 12 -5 13 -29 20 -128 37 -30 5 -120 24 -200 41 -692 149
-955 186 -1125 160z"/>
<path d="M4159 1887 c-30 -28 -40 -62 -44 -152 -3 -44 -9 -105 -15 -135 -23
-132 -41 -484 -26 -509 4 -6 2 -11 -5 -11 -7 0 -10 -2 -7 -6 3 -3 -1 -26 -8
-51 -8 -25 -14 -63 -14 -84 0 -38 1 -39 55 -54 42 -13 59 -23 70 -45 30 -59
11 -66 -56 -20 -51 35 -66 36 -108 13 -47 -27 -54 -104 -16 -177 8 -15 15 -36
15 -45 1 -33 34 -59 92 -71 51 -10 81 -23 166 -69 21 -11 58 -12 221 -2 209
12 531 26 804 37 98 4 170 10 174 17 4 7 -55 8 -188 3 -106 -4 -353 -4 -549 0
l-355 7 -27 28 c-38 38 -37 73 3 90 54 22 172 114 208 161 12 16 6 17 -86 11
-65 -4 -111 -2 -134 6 -42 14 -95 61 -136 122 -18 25 -48 60 -68 78 -22 19
-38 43 -40 59 -3 24 4 32 57 67 79 51 112 68 177 91 60 21 71 39 71 109 0 32
7 51 26 74 l25 31 -6 177 c-8 191 -21 249 -60 258 -11 2 -59 6 -108 8 -75 3
-90 1 -108 -16z"/>
<path d="M4921 1849 c-13 -5 -38 -7 -56 -3 -39 7 -74 -9 -73 -34 0 -24 -31
-191 -43 -227 -15 -47 -15 -49 5 -53 22 -5 240 47 261 62 12 9 14 30 8 123 -3
61 -9 117 -13 123 -10 16 -59 21 -89 9z"/>
<path d="M3470 1658 c0 -24 -6 -97 -14 -163 -8 -66 -19 -187 -25 -270 -16
-199 -30 -295 -47 -313 -18 -18 -11 -29 34 -48 99 -42 258 -58 330 -33 37 13
60 45 56 79 -2 14 -8 122 -14 240 -6 118 -16 238 -22 266 -11 52 -7 196 6 225
5 12 1 18 -16 23 -48 14 -195 36 -240 36 l-48 0 0 -42z"/>
<path d="M7640 1461 c8 -5 33 -12 55 -15 37 -7 248 -66 288 -81 14 -6 17 -1
17 28 0 41 8 38 -195 62 -150 17 -187 19 -165 6z"/>
<path d="M7083 1355 c-39 -7 -94 -20 -122 -30 -60 -19 -82 -42 -32 -32 141 29
212 31 409 12 121 -11 205 -23 217 -31 23 -16 79 -19 70 -4 -4 6 10 10 34 10
23 0 41 4 41 8 0 11 -129 52 -215 69 -87 16 -306 16 -402 -2z"/>
<path d="M7825 1190 c52 -23 153 -60 164 -60 7 0 11 8 9 17 -2 13 -23 23 -73
35 -39 9 -81 16 -95 17 -23 0 -23 -1 -5 -9z"/>
<path d="M7044 1171 c-178 -21 -187 -41 -17 -40 154 1 215 -6 632 -76 358 -61
341 -58 341 -46 0 5 -35 18 -77 29 -43 11 -152 40 -243 65 -91 25 -194 51
-230 57 -89 14 -319 21 -406 11z"/>
<path d="M2665 525 c-9 -4 -273 -35 -435 -51 -36 -3 -98 -12 -139 -19 -59 -10
-78 -10 -100 0 -53 26 -595 36 -781 15 -52 -6 -111 -19 -130 -29 -39 -20 -12
-21 -530 19 -226 18 -335 28 -502 46 l-48 5 0 -61 c0 -58 11 -78 24 -43 6 15
28 15 239 9 128 -4 356 -15 507 -24 l275 -17 0 -39 c0 -37 -2 -39 -35 -43 -58
-6 -202 -32 -208 -37 -13 -14 192 -60 363 -82 191 -24 649 -13 794 19 58 13
64 20 78 82 l8 40 115 12 c63 6 173 16 245 22 71 6 151 17 177 25 26 8 75 18
108 22 43 5 63 12 70 25 14 25 12 61 -4 82 -13 17 -70 31 -91 22z m-1222 -132
c-13 -2 -33 -2 -45 0 -13 2 -3 4 22 4 25 0 35 -2 23 -4z"/>
<path d="M0 359 c0 -20 4 -21 48 -14 73 11 73 19 0 28 -44 6 -48 5 -48 -14z"/>
<path d="M0 241 l0 -51 138 0 c140 0 167 6 155 38 -5 12 0 14 31 8 20 -4 46
-4 57 -1 18 6 17 9 -13 25 -26 13 -69 19 -200 25 l-168 7 0 -51z m270 -16 c0
-11 -11 -15 -37 -14 l-38 0 35 13 c19 8 36 14 38 15 1 0 2 -6 2 -14z"/>
<path d="M348 213 c7 -3 16 -2 19 1 4 3 -2 6 -13 5 -11 0 -14 -3 -6 -6z"/>
<path d="M0 85 c0 -16 53 -21 99 -8 23 6 23 7 5 14 -10 4 -38 8 -61 8 -32 1
-43 -3 -43 -14z"/>
<path d="M0 26 l0 -26 373 0 c224 0 366 4 358 9 -8 5 -62 12 -120 16 -58 3
-131 8 -161 10 -30 2 -144 7 -253 11 l-197 7 0 -27z"/>
</g>
</svg>
